<mxfile host="65bd71144e">
    <diagram id="3xjOa56mBre_hoIwteef" name="第 1 页">
        <mxGraphModel dx="928" dy="441" grid="1" gridSize="10" guides="1" tooltips="1" connect="1" arrows="1" fold="1" page="1" pageScale="1" pageWidth="1169" pageHeight="827" math="0" shadow="0">
            <root>
                <mxCell id="0"/>
                <mxCell id="1" parent="0"/>
                <mxCell id="39" value="" style="group" vertex="1" connectable="0" parent="1">
                    <mxGeometry x="110" y="10" width="570" height="240" as="geometry"/>
                </mxCell>
                <mxCell id="8" value="" style="group" vertex="1" connectable="0" parent="39">
                    <mxGeometry x="250" y="20" width="160" height="90" as="geometry"/>
                </mxCell>
                <mxCell id="2" value="" style="group;fillColor=#eeeeee;strokeColor=#36393d;container=0;" vertex="1" connectable="0" parent="8">
                    <mxGeometry width="160" height="90" as="geometry"/>
                </mxCell>
                <mxCell id="3" value="" style="whiteSpace=wrap;html=1;fillColor=#647687;strokeColor=#314354;fontColor=#ffffff;" vertex="1" parent="8">
                    <mxGeometry x="0.637450199203272" width="159.3625498007967" height="90" as="geometry"/>
                </mxCell>
                <mxCell id="4" value="" style="edgeStyle=none;orthogonalLoop=1;jettySize=auto;html=1;endArrow=none;endFill=0;entryX=1.004;entryY=0.341;entryDx=0;entryDy=0;entryPerimeter=0;rounded=0;" edge="1" target="3" parent="8">
                    <mxGeometry width="100" relative="1" as="geometry">
                        <mxPoint x="0.6374501992031583" y="30.230000000000018" as="sourcePoint"/>
                        <mxPoint x="128" y="30" as="targetPoint"/>
                        <Array as="points"/>
                    </mxGeometry>
                </mxCell>
                <mxCell id="5" value="" style="edgeStyle=none;orthogonalLoop=1;jettySize=auto;html=1;endArrow=none;endFill=0;entryX=1.004;entryY=0.341;entryDx=0;entryDy=0;entryPerimeter=0;rounded=0;" edge="1" parent="8">
                    <mxGeometry width="100" relative="1" as="geometry">
                        <mxPoint y="44.76999999999998" as="sourcePoint"/>
                        <mxPoint x="160" y="45.23000000000002" as="targetPoint"/>
                        <Array as="points"/>
                    </mxGeometry>
                </mxCell>
                <mxCell id="6" value="Strategy" style="text;html=1;align=center;verticalAlign=middle;resizable=0;points=[];autosize=1;strokeColor=none;fillColor=none;" vertex="1" parent="8">
                    <mxGeometry x="45" width="70" height="30" as="geometry"/>
                </mxCell>
                <mxCell id="7" value="&lt;i&gt;+useStrategy(Fighter*)&lt;/i&gt;" style="text;html=1;align=center;verticalAlign=middle;resizable=0;points=[];autosize=1;strokeColor=none;fillColor=none;" vertex="1" parent="8">
                    <mxGeometry x="10" y="50" width="140" height="30" as="geometry"/>
                </mxCell>
                <mxCell id="9" value="" style="group" vertex="1" connectable="0" parent="39">
                    <mxGeometry x="90" y="150" width="160" height="90" as="geometry"/>
                </mxCell>
                <mxCell id="10" value="" style="group;fillColor=#eeeeee;strokeColor=#36393d;container=0;" vertex="1" connectable="0" parent="9">
                    <mxGeometry width="160" height="90" as="geometry"/>
                </mxCell>
                <mxCell id="11" value="" style="whiteSpace=wrap;html=1;fillColor=#647687;strokeColor=#314354;fontColor=#ffffff;" vertex="1" parent="9">
                    <mxGeometry x="0.637450199203272" width="159.3625498007967" height="90" as="geometry"/>
                </mxCell>
                <mxCell id="12" value="" style="edgeStyle=none;orthogonalLoop=1;jettySize=auto;html=1;endArrow=none;endFill=0;entryX=1.004;entryY=0.341;entryDx=0;entryDy=0;entryPerimeter=0;rounded=0;" edge="1" parent="9" target="11">
                    <mxGeometry width="100" relative="1" as="geometry">
                        <mxPoint x="0.6374501992031583" y="30.230000000000018" as="sourcePoint"/>
                        <mxPoint x="128" y="30" as="targetPoint"/>
                        <Array as="points"/>
                    </mxGeometry>
                </mxCell>
                <mxCell id="13" value="" style="edgeStyle=none;orthogonalLoop=1;jettySize=auto;html=1;endArrow=none;endFill=0;entryX=1.004;entryY=0.341;entryDx=0;entryDy=0;entryPerimeter=0;rounded=0;" edge="1" parent="9">
                    <mxGeometry width="100" relative="1" as="geometry">
                        <mxPoint y="44.76999999999998" as="sourcePoint"/>
                        <mxPoint x="160" y="45.23000000000002" as="targetPoint"/>
                        <Array as="points"/>
                    </mxGeometry>
                </mxCell>
                <mxCell id="14" value="Strategy" style="text;html=1;align=center;verticalAlign=middle;resizable=0;points=[];autosize=1;strokeColor=none;fillColor=none;" vertex="1" parent="9">
                    <mxGeometry x="45" width="70" height="30" as="geometry"/>
                </mxCell>
                <mxCell id="15" value="&lt;i&gt;+useStrategy(Fighter*)&lt;/i&gt;" style="text;html=1;align=center;verticalAlign=middle;resizable=0;points=[];autosize=1;strokeColor=none;fillColor=none;" vertex="1" parent="9">
                    <mxGeometry x="10" y="50" width="140" height="30" as="geometry"/>
                </mxCell>
                <mxCell id="16" value="" style="group" vertex="1" connectable="0" parent="39">
                    <mxGeometry x="410" y="150" width="160" height="90" as="geometry"/>
                </mxCell>
                <mxCell id="17" value="" style="group;fillColor=#eeeeee;strokeColor=#36393d;container=0;" vertex="1" connectable="0" parent="16">
                    <mxGeometry width="160" height="90" as="geometry"/>
                </mxCell>
                <mxCell id="18" value="" style="whiteSpace=wrap;html=1;fillColor=#647687;strokeColor=#314354;fontColor=#ffffff;" vertex="1" parent="16">
                    <mxGeometry x="0.637450199203272" width="159.3625498007967" height="90" as="geometry"/>
                </mxCell>
                <mxCell id="19" value="" style="edgeStyle=none;orthogonalLoop=1;jettySize=auto;html=1;endArrow=none;endFill=0;entryX=1.004;entryY=0.341;entryDx=0;entryDy=0;entryPerimeter=0;rounded=0;" edge="1" parent="16" target="18">
                    <mxGeometry width="100" relative="1" as="geometry">
                        <mxPoint x="0.6374501992031583" y="30.230000000000018" as="sourcePoint"/>
                        <mxPoint x="128" y="30" as="targetPoint"/>
                        <Array as="points"/>
                    </mxGeometry>
                </mxCell>
                <mxCell id="20" value="" style="edgeStyle=none;orthogonalLoop=1;jettySize=auto;html=1;endArrow=none;endFill=0;entryX=1.004;entryY=0.341;entryDx=0;entryDy=0;entryPerimeter=0;rounded=0;" edge="1" parent="16">
                    <mxGeometry width="100" relative="1" as="geometry">
                        <mxPoint y="44.76999999999998" as="sourcePoint"/>
                        <mxPoint x="160" y="45.23000000000002" as="targetPoint"/>
                        <Array as="points"/>
                    </mxGeometry>
                </mxCell>
                <mxCell id="21" value="Strategy" style="text;html=1;align=center;verticalAlign=middle;resizable=0;points=[];autosize=1;strokeColor=none;fillColor=none;" vertex="1" parent="16">
                    <mxGeometry x="45" width="70" height="30" as="geometry"/>
                </mxCell>
                <mxCell id="22" value="&lt;i&gt;+useStrategy(Fighter*)&lt;/i&gt;" style="text;html=1;align=center;verticalAlign=middle;resizable=0;points=[];autosize=1;strokeColor=none;fillColor=none;" vertex="1" parent="16">
                    <mxGeometry x="10" y="50" width="140" height="30" as="geometry"/>
                </mxCell>
                <mxCell id="23" style="edgeStyle=orthogonalEdgeStyle;html=1;entryX=0.5;entryY=1;entryDx=0;entryDy=0;rounded=0;" edge="1" parent="39" source="14" target="3">
                    <mxGeometry relative="1" as="geometry">
                        <Array as="points">
                            <mxPoint x="170" y="130"/>
                            <mxPoint x="330" y="130"/>
                        </Array>
                    </mxGeometry>
                </mxCell>
                <mxCell id="24" style="edgeStyle=orthogonalEdgeStyle;rounded=0;html=1;endArrow=none;endFill=0;" edge="1" parent="39" source="21">
                    <mxGeometry relative="1" as="geometry">
                        <mxPoint x="330" y="130" as="targetPoint"/>
                        <Array as="points">
                            <mxPoint x="490" y="130"/>
                        </Array>
                    </mxGeometry>
                </mxCell>
                <mxCell id="35" value="" style="group" vertex="1" connectable="0" parent="39">
                    <mxGeometry width="160.32" height="130" as="geometry"/>
                </mxCell>
                <mxCell id="30" value="" style="group;fillColor=#eeeeee;strokeColor=#36393d;container=0;" vertex="1" connectable="0" parent="35">
                    <mxGeometry x="0.3199999999999932" width="160" height="130" as="geometry"/>
                </mxCell>
                <mxCell id="31" value="" style="edgeStyle=none;orthogonalLoop=1;jettySize=auto;html=1;endArrow=none;endFill=0;entryX=1.004;entryY=0.341;entryDx=0;entryDy=0;entryPerimeter=0;rounded=0;" edge="1" parent="35">
                    <mxGeometry width="100" relative="1" as="geometry">
                        <mxPoint x="0.3199999999999932" y="30.909090909090914" as="sourcePoint"/>
                        <mxPoint x="160.32" y="31.53636363636369" as="targetPoint"/>
                        <Array as="points"/>
                    </mxGeometry>
                </mxCell>
                <mxCell id="32" value="" style="edgeStyle=none;orthogonalLoop=1;jettySize=auto;html=1;endArrow=none;endFill=0;entryX=1.004;entryY=0.341;entryDx=0;entryDy=0;entryPerimeter=0;rounded=0;" edge="1" parent="35">
                    <mxGeometry width="100" relative="1" as="geometry">
                        <mxPoint y="44.54545454545454" as="sourcePoint"/>
                        <mxPoint x="160" y="45.17272727272732" as="targetPoint"/>
                        <Array as="points"/>
                    </mxGeometry>
                </mxCell>
                <mxCell id="33" value="Fighter" style="text;html=1;align=center;verticalAlign=middle;resizable=0;points=[];autosize=1;strokeColor=none;fillColor=none;" vertex="1" parent="35">
                    <mxGeometry x="50.15999999999994" width="60" height="30" as="geometry"/>
                </mxCell>
                <mxCell id="34" value="+Fighter()&lt;br&gt;+addLife()&lt;br&gt;+addMagic()&lt;br&gt;+setStrategy(Strategy*)&lt;br&gt;+useStrategy()" style="text;html=1;align=center;verticalAlign=middle;resizable=0;points=[];autosize=1;strokeColor=none;fillColor=none;" vertex="1" parent="35">
                    <mxGeometry x="5.15999999999994" y="39.997727272727275" width="150" height="90" as="geometry"/>
                </mxCell>
                <mxCell id="37" style="edgeStyle=none;html=1;exitX=0;exitY=0.5;exitDx=0;exitDy=0;rounded=0;strokeColor=default;endArrow=classic;endFill=1;" edge="1" parent="39" source="38">
                    <mxGeometry relative="1" as="geometry">
                        <mxPoint x="250" y="60" as="targetPoint"/>
                    </mxGeometry>
                </mxCell>
                <mxCell id="38" value="" style="triangle;whiteSpace=wrap;html=1;rotation=-180;" vertex="1" parent="39">
                    <mxGeometry x="160" y="50" width="10" height="20" as="geometry"/>
                </mxCell>
            </root>
        </mxGraphModel>
    </diagram>
</mxfile>